# Blender 4.3.2
# www.blender.org
mtllib Cart.mtl
o Cart
v -9.552474 -0.069463 -2.650114
v -9.556546 -0.115106 -2.657694
v -9.593263 -0.069052 -2.630682
v -9.597334 -0.114694 -2.638262
v -8.431287 -0.579559 -0.180882
v -8.435358 -0.625201 -0.188462
v -8.390498 -0.579970 -0.200315
v -8.394570 -0.625613 -0.207895
v -9.983229 -0.065117 -2.444895
v -9.987301 -0.110759 -2.452475
v -9.942440 -0.065528 -2.464327
v -9.946512 -0.111171 -2.471907
v -8.780464 -0.576035 -0.014528
v -8.784536 -0.621678 -0.022108
v -8.821253 -0.575624 0.004904
v -8.825324 -0.621266 -0.002676
vn -0.4212 0.1850 -0.8879
vn -0.9027 0.0091 0.4301
vn 0.4212 -0.1850 0.8879
vn 0.9027 -0.0091 -0.4301
vn 0.0877 0.9827 0.1632
vn -0.0877 -0.9827 -0.1632
vt 0.000000 1.000000
vt 0.000000 0.000000
vt 1.000000 1.000000
vt 1.000000 0.000000
s 1
usemtl Material03
f 1/1/1 2/2/1 3/3/1
f 2/2/1 4/4/1 3/3/1
f 3/1/2 4/2/2 5/3/2
f 4/2/2 6/4/2 5/3/2
f 5/1/3 6/2/3 7/3/3
f 6/2/3 8/4/3 7/3/3
f 7/1/4 8/2/4 1/3/4
f 8/2/4 2/4/4 1/3/4
f 7/1/5 1/2/5 5/3/5
f 1/2/5 3/4/5 5/3/5
f 2/1/6 8/2/6 4/3/6
f 8/2/6 6/4/6 4/3/6
f 11/3/1 10/2/1 9/1/1
f 11/3/1 12/4/1 10/2/1
f 13/3/4 12/2/4 11/1/4
f 13/3/4 14/4/4 12/2/4
f 15/3/3 14/2/3 13/1/3
f 15/3/3 16/4/3 14/2/3
f 9/3/2 16/2/2 15/1/2
f 9/3/2 10/4/2 16/2/2
f 13/3/5 9/2/5 15/1/5
f 13/3/5 11/4/5 9/2/5
f 12/3/6 16/2/6 10/1/6
f 12/3/6 14/4/6 16/2/6
o Cart.001
v -10.129191 0.157070 -2.297579
v -9.972271 0.155486 -2.372339
v -9.793030 0.235526 -2.440677
v -9.636108 0.233942 -2.515437
v -9.501507 0.150736 -2.596620
v -9.344585 0.149152 -2.671380
v -10.022761 0.201739 -2.113825
v -9.988580 0.254781 -2.202291
v -9.731238 0.116949 -2.269768
v -9.539731 0.196944 -2.389751
v -9.381795 0.278723 -2.468448
v -9.238154 0.193822 -2.487626
v -9.953027 0.172206 -1.928129
v -9.832440 0.131484 -1.906339
v -9.657578 0.243798 -2.053346
v -9.481208 0.155274 -2.192935
v -9.306522 0.245712 -2.219458
v -9.176363 0.075245 -2.316717
v -9.876860 0.046209 -1.765585
v -9.768682 0.129776 -1.703679
v -9.536254 0.211925 -1.892606
v -9.416546 0.205260 -1.950775
v -9.249174 0.039875 -2.064626
v -9.084309 0.127335 -2.124598
v -9.782973 0.100099 -1.573960
v -9.536681 0.201288 -1.669693
v -9.475797 0.145706 -1.764303
v -9.332320 0.188313 -1.769328
v -9.138301 0.171804 -1.864795
v -9.008142 0.001338 -1.962054
v -9.700694 0.061345 -1.396135
v -9.524954 0.139601 -1.463183
v -9.405245 0.132937 -1.521352
v -9.303007 0.064471 -1.696576
v -9.089528 0.122691 -1.606591
v -8.901711 0.046007 -1.778300
v -9.624527 -0.064652 -1.233591
v -9.470637 -0.118952 -1.317899
v -9.286905 0.030159 -1.373973
v -9.145771 0.001452 -1.446897
v -8.955007 0.079557 -1.521104
v -8.831976 0.016474 -1.592604
v -9.540416 -0.101606 -1.056260
v -9.383494 -0.103189 -1.131020
v -9.226573 -0.104773 -1.205780
v -9.061708 -0.017313 -1.265753
v -8.912730 -0.107940 -1.355300
v -8.755809 -0.109523 -1.430060
vn -0.4811 0.8597 -0.1715
vn -0.5640 0.7860 0.2534
vn -0.1488 0.9889 0.0046
vn -0.3721 0.7855 -0.4944
vn 0.0872 0.9959 0.0238
vn 0.0378 0.9801 0.1951
vn -0.1080 0.9895 0.0956
vn 0.3004 0.9525 0.0501
vn -0.0510 0.9618 -0.2690
vn 0.0227 0.9203 -0.3905
vn 0.4272 0.8641 -0.2662
vn -0.0811 0.9783 -0.1909
vn -0.1626 0.9313 0.3260
vn -0.0044 0.9792 0.2031
vn -0.0186 0.9998 -0.0103
vn -0.0370 0.9993 0.0078
vn 0.2273 0.9519 0.2055
vn 0.7258 0.6616 -0.1883
vn -0.6920 0.6116 0.3836
vn -0.2838 0.9458 0.1582
vn 0.0672 0.9508 0.3025
vn 0.1461 0.9890 0.0245
vn 0.1856 0.9758 0.1153
vn 0.2939 0.9540 0.0594
vn -0.3825 0.8953 0.2285
vn 0.0109 0.9999 0.0098
vn 0.1511 0.9666 0.2069
vn 0.0377 0.8443 0.5346
vn 0.2706 0.9622 -0.0290
vn 0.7123 0.6676 -0.2168
vn -0.1912 0.8499 0.4910
vn 0.1273 0.8650 0.4854
vn 0.3620 0.9260 0.1075
vn 0.0903 0.8759 0.4739
vn -0.0027 0.9389 0.3442
vn 0.4556 0.8818 -0.1221
vn 0.2178 0.9052 0.3650
vn 0.0276 0.8651 0.5008
vn 0.1036 0.9094 0.4028
vn -0.0181 0.9832 0.1819
vn 0.2031 0.8839 0.4213
vn 0.5185 0.8419 0.1495
vn 0.0877 0.9827 0.1632
vn 0.0024 0.9797 0.2004
vn 0.0564 0.7886 0.6124
vn 0.1144 0.9134 0.3906
vn 0.4965 0.6352 0.5917
vn 0.4604 0.7290 0.5065
vt 0.000000 1.000000
vt 0.000000 0.857143
vt 0.200000 0.857143
vt 0.200000 1.000000
vt 0.400000 0.857143
vt 0.400000 1.000000
vt 0.600000 0.857143
vt 0.600000 1.000000
vt 0.800000 0.857143
vt 0.800000 1.000000
vt 1.000000 0.857143
vt 1.000000 1.000000
vt 0.000000 0.714286
vt 0.200000 0.714286
vt 0.400000 0.714286
vt 0.600000 0.714286
vt 0.800000 0.714286
vt 1.000000 0.714286
vt 0.000000 0.571429
vt 0.200000 0.571429
vt 0.400000 0.571429
vt 0.600000 0.571429
vt 0.800000 0.571429
vt 1.000000 0.571429
vt 0.000000 0.428571
vt 0.200000 0.428571
vt 0.400000 0.428571
vt 0.600000 0.428571
vt 0.800000 0.428571
vt 1.000000 0.428571
vt 0.000000 0.285714
vt 0.200000 0.285714
vt 0.400000 0.285714
vt 0.600000 0.285714
vt 0.800000 0.285714
vt 1.000000 0.285714
vt 0.000000 0.142857
vt 0.200000 0.142857
vt 0.400000 0.142857
vt 0.600000 0.142857
vt 0.800000 0.142857
vt 1.000000 0.142857
vt 0.000000 0.000000
vt 0.200000 0.000000
vt 0.400000 0.000000
vt 0.600000 0.000000
vt 0.800000 0.000000
vt 1.000000 0.000000
s 1
usemtl Material02
f 17/5/7 23/6/8 24/7/9
f 17/5/7 24/7/9 18/8/10
f 24/7/9 25/9/11 19/10/12
f 24/7/9 19/10/12 18/8/10
f 19/10/12 25/9/11 26/11/13
f 19/10/12 26/11/13 20/12/14
f 26/11/13 27/13/15 21/14/16
f 26/11/13 21/14/16 20/12/14
f 21/14/16 27/13/15 28/15/17
f 21/14/16 28/15/17 22/16/18
f 29/17/19 30/18/20 24/7/9
f 29/17/19 24/7/9 23/6/8
f 24/7/9 30/18/20 31/19/21
f 24/7/9 31/19/21 25/9/11
f 31/19/21 32/20/22 26/11/13
f 31/19/21 26/11/13 25/9/11
f 26/11/13 32/20/22 33/21/23
f 26/11/13 33/21/23 27/13/15
f 33/21/23 34/22/24 28/15/17
f 33/21/23 28/15/17 27/13/15
f 29/17/19 35/23/25 36/24/26
f 29/17/19 36/24/26 30/18/20
f 36/24/26 37/25/27 31/19/21
f 36/24/26 31/19/21 30/18/20
f 31/19/21 37/25/27 38/26/28
f 31/19/21 38/26/28 32/20/22
f 38/26/28 39/27/29 33/21/23
f 38/26/28 33/21/23 32/20/22
f 33/21/23 39/27/29 40/28/30
f 33/21/23 40/28/30 34/22/24
f 41/29/31 42/30/32 36/24/26
f 41/29/31 36/24/26 35/23/25
f 36/24/26 42/30/32 43/31/33
f 36/24/26 43/31/33 37/25/27
f 43/31/33 44/32/34 38/26/28
f 43/31/33 38/26/28 37/25/27
f 38/26/28 44/32/34 45/33/35
f 38/26/28 45/33/35 39/27/29
f 45/33/35 46/34/36 40/28/30
f 45/33/35 40/28/30 39/27/29
f 41/29/31 47/35/37 48/36/38
f 41/29/31 48/36/38 42/30/32
f 48/36/38 49/37/39 43/31/33
f 48/36/38 43/31/33 42/30/32
f 43/31/33 49/37/39 50/38/40
f 43/31/33 50/38/40 44/32/34
f 50/38/40 51/39/41 45/33/35
f 50/38/40 45/33/35 44/32/34
f 45/33/35 51/39/41 52/40/42
f 45/33/35 52/40/42 46/34/36
f 53/41/43 54/42/44 48/36/38
f 53/41/43 48/36/38 47/35/37
f 48/36/38 54/42/44 55/43/45
f 48/36/38 55/43/45 49/37/39
f 55/43/45 56/44/46 50/38/40
f 55/43/45 50/38/40 49/37/39
f 50/38/40 56/44/46 57/45/47
f 50/38/40 57/45/47 51/39/41
f 57/45/47 58/46/48 52/40/42
f 57/45/47 52/40/42 51/39/41
f 53/41/43 59/47/49 60/48/50
f 53/41/43 60/48/50 54/42/44
f 60/48/50 61/49/51 55/43/45
f 60/48/50 55/43/45 54/42/44
f 55/43/45 61/49/51 62/50/52
f 55/43/45 62/50/52 56/44/46
f 62/50/52 63/51/53 57/45/47
f 62/50/52 57/45/47 56/44/46
f 57/45/47 63/51/53 64/52/54
f 57/45/47 64/52/54 58/46/48
o Cart.003
v -9.011177 -0.204530 -2.217516
v -9.174509 -0.202882 -2.139702
v -9.337840 -0.201234 -2.061888
v -9.501171 -0.199586 -1.984075
v -9.664502 -0.197937 -1.906261
v -9.827833 -0.196289 -1.828447
v -9.991164 -0.194641 -1.750633
v -9.008796 -0.207254 -2.212460
v -9.172127 -0.205606 -2.134645
v -9.335458 -0.203958 -2.056832
v -9.498789 -0.202310 -1.979018
v -9.662121 -0.200662 -1.901204
v -9.825452 -0.199014 -1.823390
v -9.988783 -0.197365 -1.745577
v -9.007340 -0.212478 -2.209294
v -9.170671 -0.210830 -2.131480
v -9.334002 -0.209181 -2.053666
v -9.497334 -0.207533 -1.975852
v -9.660666 -0.205885 -1.898038
v -9.823996 -0.204237 -1.820225
v -9.987327 -0.202589 -1.742411
v -9.007201 -0.218801 -2.208868
v -9.170532 -0.217153 -2.131054
v -9.333863 -0.215505 -2.053240
v -9.497194 -0.213857 -1.975427
v -9.660526 -0.212208 -1.897612
v -9.823857 -0.210560 -1.819799
v -9.987188 -0.208912 -1.741985
v -9.008415 -0.224530 -2.211296
v -9.171747 -0.222881 -2.133482
v -9.335078 -0.221233 -2.055668
v -9.498409 -0.219585 -1.977854
v -9.661740 -0.217937 -1.900040
v -9.825071 -0.216289 -1.822226
v -9.988402 -0.214641 -1.744413
v -9.010657 -0.228128 -2.215926
v -9.173989 -0.226480 -2.138112
v -9.337320 -0.224832 -2.060298
v -9.500651 -0.223184 -1.982485
v -9.663983 -0.221536 -1.904671
v -9.827313 -0.219888 -1.826857
v -9.990644 -0.218239 -1.749043
v -9.013328 -0.228633 -2.221519
v -9.176659 -0.226985 -2.143705
v -9.339991 -0.225337 -2.065891
v -9.503321 -0.223689 -1.988078
v -9.666653 -0.222041 -1.910264
v -9.829984 -0.220393 -1.832450
v -9.993315 -0.218745 -1.754636
v -9.015709 -0.225909 -2.226576
v -9.179041 -0.224261 -2.148762
v -9.342372 -0.222613 -2.070948
v -9.505703 -0.220965 -1.993134
v -9.669034 -0.219317 -1.915320
v -9.832365 -0.217668 -1.837507
v -9.995696 -0.216020 -1.759693
v -9.017164 -0.220686 -2.229742
v -9.180496 -0.219037 -2.151927
v -9.343827 -0.217389 -2.074114
v -9.507158 -0.215741 -1.996300
v -9.670489 -0.214093 -1.918486
v -9.833820 -0.212445 -1.840672
v -9.997151 -0.210797 -1.762858
v -9.017303 -0.214362 -2.230167
v -9.180635 -0.212714 -2.152353
v -9.343966 -0.211066 -2.074540
v -9.507298 -0.209418 -1.996726
v -9.670629 -0.207770 -1.918912
v -9.833960 -0.206122 -1.841098
v -9.997291 -0.204474 -1.763284
v -9.016089 -0.208634 -2.227740
v -9.179420 -0.206986 -2.149926
v -9.342752 -0.205338 -2.072112
v -9.506083 -0.203689 -1.994298
v -9.669415 -0.202041 -1.916484
v -9.832746 -0.200393 -1.838671
v -9.996077 -0.198745 -1.760857
v -9.013846 -0.205035 -2.223109
v -9.177178 -0.203387 -2.145295
v -9.340509 -0.201739 -2.067482
v -9.503840 -0.200091 -1.989668
v -9.667172 -0.198442 -1.911854
v -9.830503 -0.196794 -1.834040
v -9.993834 -0.195146 -1.756226
v -9.992239 -0.206693 -1.752635
v -9.012252 -0.216582 -2.219518
v -9.378150 -0.048378 -2.658345
v -9.381324 -0.083960 -2.664254
v -10.099232 -0.041102 -2.314808
v -10.102407 -0.076684 -2.320718
v -9.538371 -0.287513 -1.132342
v -9.541545 -0.323095 -1.138251
v -8.817288 -0.294789 -1.475878
v -8.820462 -0.330371 -1.481788
v -8.746226 0.006076 -1.414135
v -8.823362 -0.325915 -1.516162
v -9.530003 0.013986 -1.040736
v -9.566491 -0.318416 -1.162123
v -9.549464 0.000243 -0.990030
v -9.550532 -0.332511 -1.128327
v -8.694801 -0.008380 -1.397219
v -8.807405 -0.340010 -1.482367
v -10.115377 0.271234 -2.275291
v -10.100274 -0.083902 -2.287500
v -9.332077 0.263378 -2.648761
v -9.357145 -0.091401 -2.641539
v -9.313580 0.263407 -2.701372
v -9.374320 -0.090938 -2.677599
v -10.168049 0.272050 -2.294409
v -10.117449 -0.083440 -2.323559
v -9.514433 -0.326017 -1.144323
v -10.115445 0.271255 -2.275382
v -10.081122 -0.077045 -2.339078
v -10.117241 -0.083502 -2.323292
v -9.550551 -0.332474 -1.128538
v -8.842151 -0.332801 -1.464610
v -9.408840 -0.083829 -2.659366
v -9.373938 -0.091003 -2.677415
v -8.807248 -0.339975 -1.482660
vn 0.9027 -0.0091 -0.4301
vn -0.9027 0.0091 0.4301
vn 0.0877 0.9827 0.1632
vn 0.2892 0.7530 0.5910
vn 0.4097 0.3232 0.8530
vn 0.4212 -0.1850 0.8879
vn 0.3233 -0.6453 0.6922
vn 0.1381 -0.9407 0.3097
vn -0.0877 -0.9827 -0.1632
vn -0.2892 -0.7530 -0.5910
vn -0.4097 -0.3232 -0.8530
vn -0.4212 0.1850 -0.8879
vn -0.3233 0.6453 -0.6922
vn -0.1381 0.9407 -0.3097
vn -0.8871 0.3712 -0.2745
vn -0.3995 0.3528 -0.8461
vn 0.0465 0.3834 -0.9224
vn 0.4280 -0.1704 0.8876
vn -0.9987 0.0328 0.0380
vn -0.9155 -0.0769 0.3948
vn -0.9167 -0.1508 0.3700
vn -0.6227 -0.2987 0.7232
vn 0.3995 -0.3529 0.8461
vn 0.8871 -0.3710 0.2746
vn -0.2030 -0.9582 -0.2017
vn 0.6654 0.0295 -0.7459
vn 0.9244 -0.2252 0.3077
vn 0.8907 -0.0689 -0.4493
vn 0.2029 0.9582 0.2019
vn 0.0833 0.9533 0.2903
vn 0.0061 0.9646 0.2637
vn -0.1595 -0.9356 -0.3149
vn 0.4302 -0.0127 0.9026
vn 0.4302 -0.0126 0.9027
vn -0.3092 0.1165 0.9438
vn 0.4302 -0.0126 0.9026
vn 0.1292 0.9906 0.0459
vn 0.9902 -0.1302 -0.0508
vn 0.3259 -0.0065 -0.9454
vn 0.8871 -0.1806 -0.4248
vn 0.3094 -0.1158 -0.9439
vn -0.4299 0.0131 -0.9028
vn -0.7797 -0.0598 -0.6233
vn -0.4300 0.0128 -0.9028
vn -0.4093 0.0937 -0.9076
vn -0.6710 -0.0961 0.7352
vn -0.6710 -0.0962 0.7352
vn -0.9018 -0.0531 0.4288
vn -0.0430 0.9862 0.1602
vn 0.0128 0.9999 0.0057
vn 0.1292 0.9906 0.0460
vn -0.0132 -0.9999 -0.0065
vn 0.0465 0.3833 -0.9224
vn 0.9043 0.1617 -0.3951
vn 0.9043 0.1615 -0.3952
vn 0.9043 0.1614 -0.3953
vn 0.3359 0.2014 -0.9201
vn -0.0363 0.1179 -0.9924
vn -0.4093 0.0938 -0.9076
vn -0.4029 0.0168 -0.9151
vn -0.9043 -0.1614 0.3952
vn -0.9043 -0.1616 0.3952
vn -0.9155 -0.0770 0.3948
vn 0.7356 -0.2071 0.6450
vn 0.4280 -0.1705 0.8875
vn 0.4248 -0.2460 0.8712
vn 0.0832 0.9533 0.2903
vn -0.0430 0.9861 0.1602
vn -0.0705 0.9693 0.2354
vn 0.0704 -0.9693 -0.2354
vn -0.3091 0.1165 0.9439
vn -0.8737 0.1799 0.4520
vn -0.8870 0.3712 -0.2746
vn -0.8739 0.1794 0.4519
vn 0.3260 -0.0066 -0.9454
vn -0.7446 0.1249 -0.6557
vn 0.1292 0.9905 0.0460
vn -0.4564 0.0176 -0.8896
vn 0.8738 -0.1794 -0.4520
vn 0.3093 -0.1157 -0.9439
vn 0.8737 -0.1799 -0.4519
vn 0.9245 -0.2252 0.3077
vn 0.0344 -0.1999 0.9792
vn 0.4049 -0.2458 0.8807
vn -0.2431 -0.9662 -0.0860
vt 0.000000 1.000000
vt 0.000000 0.000000
vt 0.000000 0.166667
vt 0.083333 0.166667
vt 0.083333 0.000000
vt 0.000000 0.333333
vt 0.083333 0.333333
vt 0.000000 0.500000
vt 0.083333 0.500000
vt 0.000000 0.666667
vt 0.083333 0.666667
vt 0.000000 0.833333
vt 0.083333 0.833333
vt 0.083333 1.000000
vt 0.166667 0.000000
vt 0.166667 0.166667
vt 0.166667 0.333333
vt 0.166667 0.500000
vt 0.166667 0.666667
vt 0.166667 0.833333
vt 0.166667 1.000000
vt 0.250000 0.166667
vt 0.250000 0.000000
vt 0.250000 0.333333
vt 0.250000 0.500000
vt 0.250000 0.666667
vt 0.250000 0.833333
vt 0.250000 1.000000
vt 0.333333 0.000000
vt 0.333333 0.166667
vt 0.333333 0.333333
vt 0.333333 0.500000
vt 0.333333 0.666667
vt 0.333333 0.833333
vt 0.333333 1.000000
vt 0.416667 0.166667
vt 0.416667 0.000000
vt 0.416667 0.333333
vt 0.416667 0.500000
vt 0.416667 0.666667
vt 0.416667 0.833333
vt 0.416667 1.000000
vt 0.500000 0.000000
vt 0.500000 0.166667
vt 0.500000 0.333333
vt 0.500000 0.500000
vt 0.500000 0.666667
vt 0.500000 0.833333
vt 0.500000 1.000000
vt 0.583333 0.166667
vt 0.583333 0.000000
vt 0.583333 0.333333
vt 0.583333 0.500000
vt 0.583333 0.666667
vt 0.583333 0.833333
vt 0.583333 1.000000
vt 0.666667 0.000000
vt 0.666667 0.166667
vt 0.666667 0.333333
vt 0.666667 0.500000
vt 0.666667 0.666667
vt 0.666667 0.833333
vt 0.666667 1.000000
vt 0.750000 0.166667
vt 0.750000 0.000000
vt 0.750000 0.333333
vt 0.750000 0.500000
vt 0.750000 0.666667
vt 0.750000 0.833333
vt 0.750000 1.000000
vt 0.833333 0.000000
vt 0.833333 0.166667
vt 0.833333 0.333333
vt 0.833333 0.500000
vt 0.833333 0.666667
vt 0.833333 0.833333
vt 0.833333 1.000000
vt 0.916667 0.166667
vt 0.916667 0.000000
vt 0.916667 0.333333
vt 0.916667 0.500000
vt 0.916667 0.666667
vt 0.916667 0.833333
vt 0.916667 1.000000
vt 1.000000 0.000000
vt 1.000000 0.166667
vt 1.000000 0.333333
vt 1.000000 0.500000
vt 1.000000 0.666667
vt 1.000000 0.833333
vt 1.000000 1.000000
s 1
usemtl Material01
f 65/53/55 72/53/55 150/53/55
f 71/53/56 149/53/56 78/53/56
f 65/54/57 66/55/57 73/56/58
f 65/54/57 73/56/58 72/57/58
f 66/55/57 67/58/57 73/56/58
f 67/58/57 74/59/58 73/56/58
f 67/58/57 68/60/57 75/61/58
f 67/58/57 75/61/58 74/59/58
f 68/60/57 69/62/57 75/61/58
f 69/62/57 76/63/58 75/61/58
f 69/62/57 70/64/57 77/65/58
f 69/62/57 77/65/58 76/63/58
f 70/64/57 71/53/57 77/65/58
f 71/53/57 78/66/58 77/65/58
f 72/53/55 79/53/55 150/53/55
f 78/53/56 149/53/56 85/53/56
f 72/57/58 73/56/58 79/67/59
f 73/56/58 80/68/59 79/67/59
f 73/56/58 74/59/58 81/69/59
f 73/56/58 81/69/59 80/68/59
f 74/59/58 75/61/58 81/69/59
f 75/61/58 82/70/59 81/69/59
f 75/61/58 76/63/58 83/71/59
f 75/61/58 83/71/59 82/70/59
f 76/63/58 77/65/58 83/71/59
f 77/65/58 84/72/59 83/71/59
f 77/65/58 78/66/58 85/73/59
f 77/65/58 85/73/59 84/72/59
f 79/53/55 86/53/55 150/53/55
f 85/53/56 149/53/56 92/53/56
f 79/67/59 80/68/59 87/74/60
f 79/67/59 87/74/60 86/75/60
f 80/68/59 81/69/59 87/74/60
f 81/69/59 88/76/60 87/74/60
f 81/69/59 82/70/59 89/77/60
f 81/69/59 89/77/60 88/76/60
f 82/70/59 83/71/59 89/77/60
f 83/71/59 90/78/60 89/77/60
f 83/71/59 84/72/59 91/79/60
f 83/71/59 91/79/60 90/78/60
f 84/72/59 85/73/59 91/79/60
f 85/73/59 92/80/60 91/79/60
f 86/53/55 93/53/55 150/53/55
f 92/53/56 149/53/56 99/53/56
f 86/75/60 87/74/60 93/81/61
f 87/74/60 94/82/61 93/81/61
f 87/74/60 88/76/60 95/83/61
f 87/74/60 95/83/61 94/82/61
f 88/76/60 89/77/60 95/83/61
f 89/77/60 96/84/61 95/83/61
f 89/77/60 90/78/60 97/85/61
f 89/77/60 97/85/61 96/84/61
f 90/78/60 91/79/60 97/85/61
f 91/79/60 98/86/61 97/85/61
f 91/79/60 92/80/60 99/87/61
f 91/79/60 99/87/61 98/86/61
f 93/53/55 100/53/55 150/53/55
f 99/53/56 149/53/56 106/53/56
f 93/81/61 94/82/61 101/88/62
f 93/81/61 101/88/62 100/89/62
f 94/82/61 95/83/61 101/88/62
f 95/83/61 102/90/62 101/88/62
f 95/83/61 96/84/61 103/91/62
f 95/83/61 103/91/62 102/90/62
f 96/84/61 97/85/61 103/91/62
f 97/85/61 104/92/62 103/91/62
f 97/85/61 98/86/61 105/93/62
f 97/85/61 105/93/62 104/92/62
f 98/86/61 99/87/61 105/93/62
f 99/87/61 106/94/62 105/93/62
f 100/53/55 107/53/55 150/53/55
f 106/53/56 149/53/56 113/53/56
f 100/89/62 101/88/62 107/95/63
f 101/88/62 108/96/63 107/95/63
f 101/88/62 102/90/62 109/97/63
f 101/88/62 109/97/63 108/96/63
f 102/90/62 103/91/62 109/97/63
f 103/91/62 110/98/63 109/97/63
f 103/91/62 104/92/62 111/99/63
f 103/91/62 111/99/63 110/98/63
f 104/92/62 105/93/62 111/99/63
f 105/93/62 112/100/63 111/99/63
f 105/93/62 106/94/62 113/101/63
f 105/93/62 113/101/63 112/100/63
f 107/53/55 114/53/55 150/53/55
f 113/53/56 149/53/56 120/53/56
f 107/95/63 108/96/63 115/102/64
f 107/95/63 115/102/64 114/103/64
f 108/96/63 109/97/63 115/102/64
f 109/97/63 116/104/64 115/102/64
f 109/97/63 110/98/63 117/105/64
f 109/97/63 117/105/64 116/104/64
f 110/98/63 111/99/63 117/105/64
f 111/99/63 118/106/64 117/105/64
f 111/99/63 112/100/63 119/107/64
f 111/99/63 119/107/64 118/106/64
f 112/100/63 113/101/63 119/107/64
f 113/101/63 120/108/64 119/107/64
f 114/53/55 121/53/55 150/53/55
f 120/53/56 149/53/56 127/53/56
f 114/103/64 115/102/64 121/109/65
f 115/102/64 122/110/65 121/109/65
f 115/102/64 116/104/64 123/111/65
f 115/102/64 123/111/65 122/110/65
f 116/104/64 117/105/64 123/111/65
f 117/105/64 124/112/65 123/111/65
f 117/105/64 118/106/64 125/113/65
f 117/105/64 125/113/65 124/112/65
f 118/106/64 119/107/64 125/113/65
f 119/107/64 126/114/65 125/113/65
f 119/107/64 120/108/64 127/115/65
f 119/107/64 127/115/65 126/114/65
f 121/53/55 128/53/55 150/53/55
f 127/53/56 149/53/56 134/53/56
f 121/109/65 122/110/65 129/116/66
f 121/109/65 129/116/66 128/117/66
f 122/110/65 123/111/65 129/116/66
f 123/111/65 130/118/66 129/116/66
f 123/111/65 124/112/65 131/119/66
f 123/111/65 131/119/66 130/118/66
f 124/112/65 125/113/65 131/119/66
f 125/113/65 132/120/66 131/119/66
f 125/113/65 126/114/65 133/121/66
f 125/113/65 133/121/66 132/120/66
f 126/114/65 127/115/65 133/121/66
f 127/115/65 134/122/66 133/121/66
f 128/53/55 135/53/55 150/53/55
f 134/53/56 149/53/56 141/53/56
f 128/117/66 129/116/66 135/123/67
f 129/116/66 136/124/67 135/123/67
f 129/116/66 130/118/66 137/125/67
f 129/116/66 137/125/67 136/124/67
f 130/118/66 131/119/66 137/125/67
f 131/119/66 138/126/67 137/125/67
f 131/119/66 132/120/66 139/127/67
f 131/119/66 139/127/67 138/126/67
f 132/120/66 133/121/66 139/127/67
f 133/121/66 140/128/67 139/127/67
f 133/121/66 134/122/66 141/129/67
f 133/121/66 141/129/67 140/128/67
f 135/53/55 142/53/55 150/53/55
f 141/53/56 149/53/56 148/53/56
f 135/123/67 136/124/67 143/130/68
f 135/123/67 143/130/68 142/131/68
f 136/124/67 137/125/67 143/130/68
f 137/125/67 144/132/68 143/130/68
f 137/125/67 138/126/67 145/133/68
f 137/125/67 145/133/68 144/132/68
f 138/126/67 139/127/67 145/133/68
f 139/127/67 146/134/68 145/133/68
f 139/127/67 140/128/67 147/135/68
f 139/127/67 147/135/68 146/134/68
f 140/128/67 141/129/67 147/135/68
f 141/129/67 148/136/68 147/135/68
f 142/53/55 65/53/55 150/53/55
f 148/53/56 149/53/56 71/53/56
f 142/131/68 143/130/68 65/137/57
f 143/130/68 66/138/57 65/137/57
f 143/130/68 144/132/68 67/139/57
f 143/130/68 67/139/57 66/138/57
f 144/132/68 145/133/68 67/139/57
f 145/133/68 68/140/57 67/139/57
f 145/133/68 146/134/68 69/141/57
f 145/133/68 69/141/57 68/140/57
f 146/134/68 147/135/68 69/141/57
f 147/135/68 70/142/57 69/141/57
f 147/135/68 148/136/68 71/143/57
f 147/135/68 71/143/57 70/142/57
f 151/53/66 152/54/66 153/143/66
f 152/54/66 154/137/66 153/143/66
f 153/53/56 154/54/56 155/143/56
f 154/54/56 156/137/56 155/143/56
f 155/53/60 156/54/60 157/143/60
f 156/54/60 158/137/60 157/143/60
f 157/53/55 158/54/55 151/143/55
f 158/54/55 152/137/55 151/143/55
f 157/53/57 151/54/57 155/143/57
f 151/54/57 153/137/57 155/143/57
f 152/53/63 158/54/63 154/143/63
f 158/54/63 156/137/63 154/143/63
f 159/53/69 160/54/70 161/143/71
f 160/54/70 162/137/70 161/143/71
f 161/53/72 162/54/73 163/143/74
f 162/54/73 164/137/75 163/143/74
f 163/53/76 164/54/77 165/143/78
f 164/54/77 166/137/77 165/143/78
f 165/53/79 166/54/80 159/143/81
f 166/54/80 160/137/82 159/143/81
f 165/53/83 159/54/83 163/143/84
f 159/54/83 161/137/85 163/143/84
f 160/53/86 166/54/86 162/143/86
f 166/54/86 164/137/86 162/143/86
f 167/53/87 168/54/88 169/143/89
f 168/54/88 170/137/90 169/143/89
f 169/53/91 170/54/92 171/143/93
f 170/54/92 172/137/94 171/143/93
f 171/53/95 172/54/96 173/143/97
f 172/54/96 174/137/98 173/143/97
f 173/53/99 174/54/100 167/143/101
f 174/54/100 168/137/102 167/143/101
f 173/53/103 167/54/104 171/143/105
f 167/54/104 169/137/105 171/143/105
f 168/53/106 174/54/106 170/143/106
f 174/54/106 172/137/106 170/143/106
f 161/53/107 175/54/108 176/143/109
f 175/54/108 177/137/110 176/143/109
f 176/53/111 177/54/112 173/143/113
f 177/54/112 178/137/114 173/143/113
f 173/53/97 178/54/115 163/143/76
f 178/54/115 179/137/116 163/143/76
f 163/53/117 179/54/118 161/143/119
f 179/54/118 175/137/120 161/143/119
f 163/53/121 161/54/85 173/143/122
f 161/54/85 176/137/123 173/143/122
f 175/53/124 179/54/124 177/143/124
f 179/54/124 178/137/124 177/143/124
f 169/143/125 180/54/126 159/53/127
f 169/143/125 181/137/128 180/54/126
f 171/143/129 181/54/130 169/53/131
f 171/143/129 182/137/132 181/54/130
f 165/143/78 182/54/133 171/53/134
f 165/143/78 183/137/135 182/54/133
f 159/143/136 183/54/137 165/53/79
f 159/143/136 180/137/138 183/54/137
f 171/143/131 159/54/83 165/53/83
f 171/143/131 169/137/131 159/54/83
f 181/143/139 183/54/139 180/53/139
f 181/143/139 182/137/139 183/54/139
